<svg width="70" height="70" viewBox="0 0 70 70" fill="none" xmlns="http://www.w3.org/2000/svg">
<circle cx="35" cy="35" r="34" stroke="#343434" stroke-width="2"/>
<path d="M26.8704 32.7891C27.179 32.576 27.4876 32.3629 27.7962 32.1499C27.3128 31.3356 26.7648 30.8734 26.1776 30.3685C24.7602 29.2057 23.1689 28.3542 21.5281 27.6745C20.3884 27.2128 19.1553 26.8635 17.7825 26.8346C16.4176 26.8891 14.7472 26.8518 13.3799 28.8314C13.364 28.8601 13.3225 28.9483 13.3099 28.9785C11.9732 32.5681 12.2737 36.9155 15.0844 39.8443C17.2243 42.1255 20.6799 43.5731 23.9839 42.3654C24.0114 42.3561 24.0884 42.3179 24.1144 42.305C26.872 40.3378 27.6151 37.4023 27.8783 34.6776C27.9352 33.938 27.9375 33.1996 27.8958 32.4695C27.5208 32.4695 27.1458 32.4695 26.7708 32.4695C26.7292 33.1558 26.6487 33.8363 26.523 34.5015C26.091 36.9202 24.8304 39.4745 23.0944 40.4453L23.2249 40.3848C21.1254 40.9617 18.5774 39.8893 17.0465 38.0389C15.2115 36.0032 15.0691 32.67 16.0648 30.1096L15.9947 30.2567C15.9496 30.3292 16.0147 30.2336 16.1147 30.1746C16.2157 30.1082 16.3602 30.0394 16.5262 29.9861C16.8611 29.8772 17.2848 29.8262 17.7334 29.8342C18.6222 29.8495 19.6077 30.0465 20.6006 30.3264C22.1753 30.7793 23.7406 31.2574 25.2213 31.8935C25.8176 32.1512 26.4798 32.4852 26.8704 32.7891ZM27.7962 32.1499L26.8704 32.7891L26.7708 32.4695H27.8958C27.9004 32.3908 27.829 32.2215 27.7962 32.1499Z" fill="#343434"/>
<path d="M44.823 36.0921C47.8829 41.3572 44.8142 45.4737 42.8974 46.8738C41.1741 47.1681 36.8463 47.136 33.3222 44.6532C29.7981 42.1705 29.7612 36.6985 30.1833 34.2728C30.2745 33.5879 31.1709 33.2027 31.6077 33.0957C33.8058 32.6408 39.5263 32.6034 44.823 36.0921ZM44.823 36.0921L53.8179 28.3335L56.6667 29.9922" stroke="#343434" stroke-width="3" stroke-linecap="round" stroke-linejoin="round"/>
<path d="M17.7645 27.8225C17.6737 27.9184 17.5961 28.0309 17.5591 28.1577C17.5221 28.2845 17.5283 28.4144 17.5802 28.527C17.6322 28.6395 17.7269 28.7286 17.8473 28.7828C17.9678 28.837 18.1038 28.851 18.2357 28.8441C18.2357 28.8441 18.2357 28.8441 18.2357 28.8441C18.5757 28.825 18.9105 28.7945 19.24 28.7526C20.5582 28.5851 21.7926 28.2361 22.9433 27.7054C25.3597 26.591 27.7351 25.3876 30.0694 24.0951L29.0911 24.1092C30.774 24.6852 32.474 25.2212 34.1911 25.7171C34.4978 25.8056 34.8049 25.8929 35.1127 25.9789C35.2484 26.0167 35.3959 26.0123 35.5275 25.9558C35.6589 25.8993 35.763 25.7968 35.8179 25.6682C35.8727 25.5397 35.8747 25.3936 35.8245 25.2596C35.7743 25.1255 35.6754 25.016 35.5542 24.9442C35.5542 24.9442 35.5542 24.9442 35.5542 24.9442C35.2791 24.7815 35.0036 24.6201 34.7275 24.4601C33.1813 23.5636 31.618 22.7071 30.0376 21.8908C29.7916 21.8065 29.2868 21.7789 29.0593 21.9049C26.5608 22.8413 24.1033 23.8667 21.6869 24.9812C20.5362 25.5118 19.4693 26.2241 18.4862 27.118C18.2404 27.3415 17.9998 27.5764 17.7645 27.8225Z" fill="#343434"/>
<path d="M27.3332 34.4375C27.2856 34.5743 27.2399 34.6982 27.2062 34.7874C27.1726 34.8783 27.1536 34.9382 27.1536 35C27.1536 35.0618 27.1726 35.1217 27.2062 35.2126C27.2399 35.3018 27.2856 35.4257 27.3332 35.5625C27.3332 35.5625 27.3332 35.5625 27.3332 35.5625C27.3777 35.6875 27.4221 35.8 27.4666 35.9C27.6443 36.3 27.8221 36.5 27.9999 36.5C28.6221 36.5 29.2443 36.2278 29.8666 35.6833C29.911 35.6444 29.9555 35.6042 29.9999 35.5625C30.0947 35.4719 30.1857 35.3824 30.2527 35.2885C30.3198 35.1942 30.3575 35.0987 30.3575 35C30.3575 34.9013 30.3198 34.8058 30.2527 34.7115C30.1857 34.6176 30.0947 34.5281 29.9999 34.4375C29.9555 34.3958 29.911 34.3556 29.8666 34.3167C29.2443 33.7722 28.6221 33.5 27.9999 33.5C27.8221 33.5 27.6443 33.7 27.4666 34.1C27.4221 34.2 27.3777 34.3125 27.3332 34.4375Z" fill="#343434"/>
</svg>
